# xmcd
#
# Track frame offsets:
#	187
#	17852
#	36472
#	56114
#	85872
#	105082
#	162259
#	182792
#	194102
#	213639
#
# Disc length: 3274 seconds
#
# Revision: 1
# Processed by: cddbd v1.5.1PL0 Copyright (c) Steve Scherf et al.
# Submitted via: CDex 1.50Beta5
#
DISCID=8d0cc80a
DTITLE=グリーン・ウッドのみなさん - ここはグリーン・ウッド〜緑林ミステリー“忍失踪事件!?”
DYEAR=1992
DGENRE=
TTITLE0=グリーン・ウッドのみなさん/グリーン・ウッド・カーニバル3
TTITLE1=佐々木望/或る朝のできごと*ドラマ
TTITLE2=緑川ツグヲ/あいつの噂
TTITLE3=佐々木望/証言*ドラマ
TTITLE4=井上和彦/ウクレレな兄の愛
TTITLE5=佐々木望/捜索*ドラマ
TTITLE6=佐々木望/桜林の園
TTITLE7=佐々木望/真相*ドラマ
TTITLE8=坂本洋/とびきりの明日
TTITLE9=佐々木望/再会のシンデレラ*ドラマ
EXTD=
EXTT0=
EXTT1=
EXTT2=
EXTT3=
EXTT4=
EXTT5=
EXTT6=
EXTT7=
EXTT8=
EXTT9=
PLAYORDER=
